<svg xmlns="http://www.w3.org/2000/svg" viewBox="0 0 64 64">
  <defs>
    <linearGradient id="fur" x1="0" x2="1" y1="0" y2="1">
      <stop offset="0" stop-color="#b45309"/>
      <stop offset="1" stop-color="#92400e"/>
    </linearGradient>
  </defs>
  <rect width="64" height="64" rx="14" fill="#0f0f0f"/>
  <path d="M14 30c0-9 7-16 18-16s18 7 18 16v13c0 2-2 4-4 4H18c-2 0-4-2-4-4V30z" fill="url(#fur)"/>
  <path d="M18 28c-5-2-7-7-6-12 5 1 9 4 11 8" fill="#7c2d12"/>
  <path d="M46 28c5-2 7-7 6-12-5 1-9 4-11 8" fill="#7c2d12"/>
  <circle cx="26" cy="34" r="3" fill="#111827"/>
  <circle cx="38" cy="34" r="3" fill="#111827"/>
  <path d="M30 40c0-2 2-3 2-3s2 1 2 3c0 2-2 3-2 3s-2-1-2-3z" fill="#111827"/>
  <path d="M24 44c3 3 13 3 16 0" stroke="#fef3c7" stroke-width="2.5" stroke-linecap="round" fill="none" opacity="0.85"/>
</svg>
